<svg
  xmlns="http://www.w3.org/2000/svg"
  viewBox="0 0 256 256"
  width="100"
  height="100"
>
  <rect width="256" height="256" fill="#f7df1e" />
  <path
    d="M67.9 210.8L83.4 199.5c3.2 5.7 6.2 10.4 13.4 10.4 6.9 0 11.3-2.7 11.3-13.2V113.5h17.5v82.8c0 18-10.5 26.1-25.8 26.1-13.8 0-21.9-7.2-26.2-15.6zm91.2-1.2l15.7-9.1c4.1 7 9.5 12.1 19 12.1 8 0 13.1-4 13.1-9.5 0-6.6-5.2-9-14-12.9l-4.8-2.1c-13.8-5.9-23-13.4-23-29 0-14.4 11-25.4 28.3-25.4 12.3 0 21.2 4.3 27.5 15.5l-15 9.7c-3.3-5.9-6.8-8.2-12.5-8.2-5.7 0-9.3 3.6-9.3 8.2 0 5.7 3.6 8 11.8 11.5l4.8 2.1c16.3 6.9 25.5 13.9 25.5 29.7 0 17-13.4 26.3-31.5 26.3-17.6 0-29-8.4-34.4-19.4z"
    fill="#000000"
  />
</svg>
